#!OML:ASF F:\VICON\USERDATA\INSTALL\rory3\rory3.ASF
:FULLY-SPECIFIED
:DEGREES
2556
root 5.33353 17.6787 4.58568 -366.506 -18.0095 363.844
lowerback 4.83598 -5.77911 -4.72374
upperback -1.89081 -7.85932 5.42084
thorax -3.26992 -3.77915 8.86083
lowerneck -16.0102 -4.95881 -13.9507
upperneck 26.4729 -5.80207 8.61862
head 12.0354 -3.02482 4.72292
rclavicle -5.58585e-014 -1.59028e-015
rhumerus 18.8076 -77.2811 -15.9216
rradius 47.2376
rwrist -40.9266
rhand -38.0188 -6.86697
rfingers 7.12502
rthumb -11.0574 -36.5557
lclavicle -5.58585e-014 -1.59028e-015
lhumerus 35.0038 54.5602 11.1172
lradius 53.0982
lwrist 14.0607
lhand -27.0053 23.9172
lfingers 7.12502
lthumb -0.425217 53.8965
rfemur -11.1282 9.30696 2.65779
rtibia 38.0645
rfoot -5.55887 3.94419
rtoes 4.834
lfemur 0.106893 6.64847 -21.3145
ltibia 22.7924
lfoot -11.3391 9.9364
ltoes -19.0382
2557
root 5.33771 17.6839 4.56806 -366.349 -18.8355 363.574
lowerback 4.81828 -5.86296 -4.51694
upperback -1.8369 -7.95476 5.62442
thorax -3.18445 -3.83761 8.95859
lowerneck -16.1916 -4.76234 -13.9483
upperneck 26.4002 -5.53495 8.78577
head 12.01 -2.87924 4.82753
rclavicle 6.06293e-014 1.59028e-014
rhumerus 19.0526 -77.7036 -16.2747
rradius 46.9036
rwrist -40.7734
rhand -37.7573 -7.23706
rfingers 7.12502
rthumb -10.8051 -36.9391
lclavicle 6.06293e-014 1.59028e-014
lhumerus 34.2464 54.0995 10.4372
lradius 52.5129
lwrist 13.9134
lhand -26.752 23.712
lfingers 7.12502
lthumb -0.180608 53.6917
rfemur -11.081 9.16604 2.92157
rtibia 37.1371
rfoot -5.57658 4.11005
rtoes 5.46502
lfemur -0.0114424 6.87249 -20.9899
ltibia 22.86
lfoot -11.3851 10.3438
ltoes -18.355
2558
root 5.3414 17.6882 4.54924 -366.209 -19.648 363.394
lowerback 4.81569 -5.86325 -4.36882
upperback -1.76203 -7.94455 5.75883
thorax -3.10687 -3.84181 9.01249
lowerneck -16.4725 -4.65523 -13.8014
upperneck 26.3607 -5.40121 8.86603
head 12.0287 -2.7873 4.85257
rclavicle -2.3556e-014 -1.11319e-014
rhumerus 19.0592 -78.4346 -16.3481
rradius 46.5336
rwrist -40.2878
rhand -37.5699 -7.42301
rfingers 7.12502
rthumb -10.6244 -37.1344
lclavicle -2.3556e-014 -1.11319e-014
lhumerus 34.0833 53.672 10.3665
lradius 51.9023
lwrist 13.5574
lhand -26.4068 23.6064
lfingers 7.12502
lthumb 0.152885 53.5861
rfemur -11.1268 8.93616 3.10288
rtibia 36.3424
rfoot -5.71356 4.12495
rtoes 5.1828
lfemur -0.0584211 7.1804 -20.7566
ltibia 22.7705
lfoot -11.3084 10.6686
ltoes -18.0845
2559
root 5.34914 17.6901 4.53035 -366.123 -20.4753 363.72
lowerback 4.68927 -5.87515 -4.6004
upperback -1.71947 -7.97538 5.73848
thorax -2.95772 -3.86151 9.10095
lowerneck -16.6528 -4.5215 -13.551
upperneck 26.1833 -5.2352 8.84215
head 11.9622 -2.68214 4.81996
rclavicle 5.41688e-014 -1.27222e-014
rhumerus 19.2188 -79.229 -16.6402
rradius 46.2401
rwrist -40.036
rhand -37.1678 -7.74879
rfingers 7.12502
rthumb -10.2366 -37.4797
lclavicle 5.41688e-014 -1.27222e-014
lhumerus 33.6843 53.2231 9.97844
lradius 51.3078
lwrist 13.3532
lhand -26.1242 23.6015
lfingers 7.12502
lthumb 0.4258 53.5808
rfemur -11.3916 8.41747 2.69473
rtibia 35.6981
rfoot -5.72759 4.29596
rtoes 5.23845
lfemur -0.159508 7.41541 -21.1154
ltibia 22.5689
lfoot -11.1716 11.1655
ltoes -18.2319
2560
root 5.36172 17.6853 4.50708 -366.124 -21.2622 364.591
lowerback 4.53873 -5.86863 -5.28631
upperback -1.77482 -8.00977 5.60201
thorax -2.8531 -3.86935 9.32587
lowerneck -16.6361 -4.39006 -13.3498
upperneck 25.9034 -5.07584 8.7993
head 11.8192 -2.58982 4.78453
rclavicle 1.37161e-014 -7.95139e-015
rhumerus 18.1798 -79.6747 -15.7115
rradius 46.0868
rwrist -40.1174
rhand -37.0606 -7.85327
rfingers 7.12502
rthumb -10.1331 -37.5893
lclavicle 1.37161e-014 -7.95139e-015
lhumerus 33.2075 52.7785 9.61713
lradius 50.8171
lwrist 13.2406
lhand -26.0058 23.366
lfingers 7.12502
lthumb 0.540109 53.3451
rfemur -11.8428 7.67599 1.69615
rtibia 35.1944
rfoot -5.85241 4.51354
rtoes 4.98735
lfemur -0.389461 7.62604 -22.0789
ltibia 22.328
lfoot -11.032 11.743
ltoes -18.284
2561
root 5.3704 17.6819 4.47981 -366.124 -22.0906 365.178
lowerback 4.50432 -5.80445 -5.7676
upperback -1.79472 -7.95458 5.56457
thorax -2.80741 -3.83443 9.55368
lowerneck -16.7103 -4.33957 -13.3029
upperneck 25.6823 -4.99108 8.80214
head 11.7354 -2.53989 4.78316
rclavicle 2.92213e-014 -8.90555e-014
rhumerus 16.4911 -80.0379 -14.0749
rradius 45.9871
rwrist -40.219
rhand -37.2415 -7.4665
rfingers 7.12502
rthumb -10.3076 -37.1939
lclavicle 2.92213e-014 -8.90555e-014
lhumerus 32.8426 52.3262 9.52029
lradius 50.3855
lwrist 13.1773
lhand -25.9522 23.1717
lfingers 7.12502
lthumb 0.591946 53.1506
rfemur -12.2254 7.04656 1.08505
rtibia 34.7987
rfoot -6.48199 4.53817
rtoes 3.34369
lfemur -0.542327 7.92422 -22.681
ltibia 22.093
lfoot -10.9047 12.2425
ltoes -18.0673
2562
root 5.3743 17.6845 4.45074 -366.087 -22.9927 365.246
lowerback 4.5578 -5.76047 -5.75855
upperback -1.72458 -7.89759 5.59735
thorax -2.77185 -3.81043 9.58426
lowerneck -16.8648 -4.27084 -13.2656
upperneck 25.5816 -4.89325 8.86976
head 11.7144 -2.47836 4.8145
rclavicle -5.36719e-014 -2.38542e-014
rhumerus 14.6878 -80.3256 -12.489
rradius 45.9693
rwrist -40.3604
rhand -37.432 -7.05586
rfingers 7.12502
rthumb -10.4914 -36.774
lclavicle -5.36719e-014 -2.38542e-014
lhumerus 32.2745 51.8184 9.05681
lradius 49.9644
lwrist 13.2241
lhand -25.8119 22.9314
lfingers 7.12502
lthumb 0.727404 52.9099
rfemur -12.4463 6.64226 1.10751
rtibia 34.4898
rfoot -7.54983 4.37927
rtoes 2.08914
lfemur -0.561103 8.12005 -22.7154
ltibia 21.9295
lfoot -10.8051 12.8253
ltoes -17.6917
2563
root 5.37701 17.6871 4.42029 -366.03 -23.9616 365.168
lowerback 4.65356 -5.69889 -5.58642
upperback -1.67986 -7.80734 5.64338
thorax -2.81286 -3.7678 9.54395
lowerneck -16.8436 -4.15446 -13.1622
upperneck 25.4326 -4.75066 8.87164
head 11.6296 -2.40137 4.81471
rclavicle -3.79679e-014 -1.11319e-014
rhumerus 12.0562 -80.3942 -10.0574
rradius 45.9561
rwrist -40.5677
rhand -37.5045 -6.71969
rfingers 7.12502
rthumb -10.5613 -36.4343
lclavicle -3.79679e-014 -1.11319e-014
lhumerus 31.6915 51.2756 8.40559
lradius 49.5343
lwrist 13.5175
lhand -25.3101 22.8807
lfingers 7.12502
lthumb 1.21208 52.857
rfemur -12.6318 6.26556 1.31459
rtibia 34.2254
rfoot -8.8408 4.10739
rtoes 1.05861
lfemur -0.607962 8.11939 -22.6193
ltibia 21.8919
lfoot -10.6936 13.6577
ltoes -17.3196
2564
root 5.3787 17.6893 4.38863 -365.985 -24.9873 365.248
lowerback 4.74378 -5.65431 -5.59618
upperback -1.68684 -7.75093 5.70373
thorax -2.87266 -3.73632 9.62629
lowerneck -16.8329 -3.99018 -13.1573
upperneck 25.3848 -4.53615 8.943
head 11.5808 -2.29558 4.87306
rclavicle 7.2954e-014 4.77083e-015
rhumerus 10.306 -80.3026 -8.44503
rradius 45.9001
rwrist -40.6737
rhand -37.6254 -6.44088
rfingers 7.12502
rthumb -10.6779 -36.1495
lclavicle 7.2954e-014 4.77083e-015
lhumerus 30.8156 50.6659 7.46558
lradius 49.0137
lwrist 13.7086
lhand -25.0426 23.0193
lfingers 7.12502
lthumb 1.47044 52.994
rfemur -12.8858 5.83502 1.3685
rtibia 34.012
rfoot -10.304 3.4971
rtoes -0.426152
lfemur -0.762619 8.28515 -22.6651
ltibia 21.9452
lfoot -10.6543 14.362
ltoes -17.0101
2565
root 5.3791 17.6889 4.35206 -365.912 -25.93 365.289
lowerback 4.84176 -5.64379 -5.5795
upperback -1.65546 -7.73946 5.74064
thorax -2.89409 -3.73117 9.66681
lowerneck -16.9298 -3.85609 -13.1926
upperneck 25.4452 -4.38486 9.14986
head 11.6072 -2.20612 4.98468
rclavicle 2.74323e-014 -1.27222e-014
rhumerus 8.73256 -80.2734 -7.16118
rradius 45.9329
rwrist -40.5917
rhand -37.8085 -6.22015
rfingers 7.12502
rthumb -10.8545 -35.9196
lclavicle 2.74323e-014 -1.27222e-014
lhumerus 30.376 50.233 7.16072
lradius 48.5809
lwrist 13.4297
lhand -24.9582 23.1288
lfingers 7.12502
lthumb 1.55191 53.1029
rfemur -13.1162 5.45545 1.48117
rtibia 33.9087
rfoot -11.8992 2.43779
rtoes -1.20757
lfemur -0.953318 8.48619 -22.6608
ltibia 22.0102
lfoot -10.6035 14.935
ltoes -16.8728
2566
root 5.37723 17.6902 4.31036 -365.855 -26.8017 365.241
lowerback 5.02366 -5.62563 -5.53836
upperback -1.61227 -7.71862 5.79732
thorax -2.95257 -3.72027 9.7247
lowerneck -17.057 -3.74837 -13.1193
upperneck 25.499 -4.25261 9.19665
head 11.6334 -2.13277 5.01257
rclavicle -8.96022e-014 5.725e-014
rhumerus 7.28473 -80.3721 -6.0021
rradius 46.0078
rwrist -40.544
rhand -37.9724 -5.90127
rfingers 7.12502
rthumb -11.0127 -35.5924
lclavicle -8.96022e-014 5.725e-014
lhumerus 30.2559 49.9113 7.35948
lradius 48.2426
lwrist 12.8704
lhand -24.665 23.3116
lfingers 7.12502
lthumb 1.83512 53.2834
rfemur -13.3019 5.17549 1.73467
rtibia 33.9572
rfoot -13.3249 0.967658
rtoes -1.7597
lfemur -1.07265 8.51193 -22.5646
ltibia 22.0131
lfoot -10.4785 15.6336
ltoes -16.2715
2567
root 5.37432 17.6909 4.27029 -365.857 -27.6761 365.349
lowerback 5.15148 -5.64597 -5.60081
upperback -1.57121 -7.75546 5.81627
thorax -2.96301 -3.73884 9.79495
lowerneck -17.2539 -3.54761 -12.9891
upperneck 25.5757 -3.9778 9.18622
head 11.6602 -1.99519 5.03155
rclavicle -6.75371e-014 -2.38542e-014
rhumerus 6.96899 -80.4865 -5.97074
rradius 46.0663
rwrist -40.5695
rhand -37.9856 -5.58104
rfingers 7.12502
rthumb -11.0254 -35.2715
lclavicle -6.75371e-014 -2.38542e-014
lhumerus 29.583 49.599 7.16895
lradius 48.1668
lwrist 12.3957
lhand -24.5262 23.4163
lfingers 7.12502
lthumb 1.96915 53.387
rfemur -13.5401 4.9067 1.84685
rtibia 34.1478
rfoot -14.4826 -0.826123
rtoes -1.96562
lfemur -1.16339 8.52986 -22.6199
ltibia 21.9439
lfoot -10.3637 16.3738
ltoes -15.3595
2568
root 5.37048 17.6936 4.23327 -365.942 -28.525 365.632
lowerback 5.41726 -5.68769 -5.81063
upperback -1.64401 -7.83625 5.78044
thorax -3.15018 -3.76293 9.91903
lowerneck -17.4092 -3.25937 -12.747
upperneck 25.7972 -3.62142 9.14725
head 11.7201 -1.8185 5.03819
rclavicle 1.5207e-014 -6.52014e-014
rhumerus 7.95589 -80.6198 -7.23125
rradius 46.0156
rwrist -40.2263
rhand -37.8015 -5.30232
rfingers 7.12502
rthumb -10.8478 -35.0021
lclavicle 1.5207e-014 -6.52014e-014
lhumerus 28.4131 49.0878 6.50716
lradius 48.2781
lwrist 12.1728
lhand -24.2323 22.9428
lfingers 7.12502
lthumb 2.25299 52.9106
rfemur -13.7881 4.4778 1.76577
rtibia 34.465
rfoot -15.498 -2.63946
rtoes -1.51216
lfemur -1.20607 8.70043 -22.8283
ltibia 21.8085
lfoot -10.2285 16.991
ltoes -15.5358
